<svg width="416" height="76" viewBox="0 0 416 76" fill="none" xmlns="http://www.w3.org/2000/svg">
<line x1="8.74228e-08" y1="15" x2="416" y2="15" stroke="#D4D4D8" stroke-width="2"/>
<circle cx="80" cy="16" r="15.5" fill="#B991FF" stroke="#B991FF"/>
<path d="M77.608 11.76V10.432H80.616V22H79.144V11.76H77.608Z" fill="white"/>
<path d="M44.0824 45.524V48.32H47.1304V49.22H44.0824V52.1H47.4904V53H42.9904V44.624H47.4904V45.524H44.0824ZM57.0507 46.304C57.5627 46.304 58.0187 46.412 58.4187 46.628C58.8187 46.836 59.1347 47.152 59.3667 47.576C59.5987 48 59.7147 48.516 59.7147 49.124V53H58.6347V49.28C58.6347 48.624 58.4707 48.124 58.1427 47.78C57.8227 47.428 57.3867 47.252 56.8347 47.252C56.2667 47.252 55.8147 47.436 55.4787 47.804C55.1427 48.164 54.9747 48.688 54.9747 49.376V53H53.8947V49.28C53.8947 48.624 53.7307 48.124 53.4027 47.78C53.0827 47.428 52.6467 47.252 52.0947 47.252C51.5267 47.252 51.0747 47.436 50.7387 47.804C50.4027 48.164 50.2347 48.688 50.2347 49.376V53H49.1427V46.424H50.2347V47.372C50.4507 47.028 50.7387 46.764 51.0987 46.58C51.4667 46.396 51.8707 46.304 52.3107 46.304C52.8627 46.304 53.3507 46.428 53.7747 46.676C54.1987 46.924 54.5147 47.288 54.7227 47.768C54.9067 47.304 55.2107 46.944 55.6347 46.688C56.0587 46.432 56.5307 46.304 57.0507 46.304ZM62.598 47.636C62.814 47.26 63.134 46.948 63.558 46.7C63.99 46.444 64.49 46.316 65.058 46.316C65.642 46.316 66.17 46.456 66.642 46.736C67.122 47.016 67.498 47.412 67.77 47.924C68.042 48.428 68.178 49.016 68.178 49.688C68.178 50.352 68.042 50.944 67.77 51.464C67.498 51.984 67.122 52.388 66.642 52.676C66.17 52.964 65.642 53.108 65.058 53.108C64.498 53.108 64.002 52.984 63.57 52.736C63.146 52.48 62.822 52.164 62.598 51.788V56.12H61.506V46.424H62.598V47.636ZM67.062 49.688C67.062 49.192 66.962 48.76 66.762 48.392C66.562 48.024 66.29 47.744 65.946 47.552C65.61 47.36 65.238 47.264 64.83 47.264C64.43 47.264 64.058 47.364 63.714 47.564C63.378 47.756 63.106 48.04 62.898 48.416C62.698 48.784 62.598 49.212 62.598 49.7C62.598 50.196 62.698 50.632 62.898 51.008C63.106 51.376 63.378 51.66 63.714 51.86C64.058 52.052 64.43 52.148 64.83 52.148C65.238 52.148 65.61 52.052 65.946 51.86C66.29 51.66 66.562 51.376 66.762 51.008C66.962 50.632 67.062 50.192 67.062 49.688ZM70.7074 44.12V53H69.6154V44.12H70.7074ZM75.4365 53.108C74.8205 53.108 74.2605 52.968 73.7565 52.688C73.2605 52.408 72.8685 52.012 72.5805 51.5C72.3005 50.98 72.1605 50.38 72.1605 49.7C72.1605 49.028 72.3045 48.436 72.5925 47.924C72.8885 47.404 73.2885 47.008 73.7925 46.736C74.2965 46.456 74.8605 46.316 75.4845 46.316C76.1085 46.316 76.6725 46.456 77.1765 46.736C77.6805 47.008 78.0765 47.4 78.3645 47.912C78.6605 48.424 78.8085 49.02 78.8085 49.7C78.8085 50.38 78.6565 50.98 78.3525 51.5C78.0565 52.012 77.6525 52.408 77.1405 52.688C76.6285 52.968 76.0605 53.108 75.4365 53.108ZM75.4365 52.148C75.8285 52.148 76.1965 52.056 76.5405 51.872C76.8845 51.688 77.1605 51.412 77.3685 51.044C77.5845 50.676 77.6925 50.228 77.6925 49.7C77.6925 49.172 77.5885 48.724 77.3805 48.356C77.1725 47.988 76.9005 47.716 76.5645 47.54C76.2285 47.356 75.8645 47.264 75.4725 47.264C75.0725 47.264 74.7045 47.356 74.3685 47.54C74.0405 47.716 73.7765 47.988 73.5765 48.356C73.3765 48.724 73.2765 49.172 73.2765 49.7C73.2765 50.236 73.3725 50.688 73.5645 51.056C73.7645 51.424 74.0285 51.7 74.3565 51.884C74.6845 52.06 75.0445 52.148 75.4365 52.148ZM85.9083 46.424L81.9483 56.096H80.8203L82.1163 52.928L79.4643 46.424H80.6763L82.7403 51.752L84.7803 46.424H85.9083ZM94.914 46.304C95.426 46.304 95.882 46.412 96.282 46.628C96.682 46.836 96.998 47.152 97.23 47.576C97.462 48 97.578 48.516 97.578 49.124V53H96.498V49.28C96.498 48.624 96.334 48.124 96.006 47.78C95.686 47.428 95.25 47.252 94.698 47.252C94.13 47.252 93.678 47.436 93.342 47.804C93.006 48.164 92.838 48.688 92.838 49.376V53H91.758V49.28C91.758 48.624 91.594 48.124 91.266 47.78C90.946 47.428 90.51 47.252 89.958 47.252C89.39 47.252 88.938 47.436 88.602 47.804C88.266 48.164 88.098 48.688 88.098 49.376V53H87.006V46.424H88.098V47.372C88.314 47.028 88.602 46.764 88.962 46.58C89.33 46.396 89.734 46.304 90.174 46.304C90.726 46.304 91.214 46.428 91.638 46.676C92.062 46.924 92.378 47.288 92.586 47.768C92.77 47.304 93.074 46.944 93.498 46.688C93.922 46.432 94.394 46.304 94.914 46.304ZM105.369 49.46C105.369 49.668 105.357 49.888 105.333 50.12H100.077C100.117 50.768 100.337 51.276 100.737 51.644C101.145 52.004 101.637 52.184 102.213 52.184C102.685 52.184 103.077 52.076 103.389 51.86C103.709 51.636 103.933 51.34 104.061 50.972H105.237C105.061 51.604 104.709 52.12 104.181 52.52C103.653 52.912 102.997 53.108 102.213 53.108C101.589 53.108 101.029 52.968 100.533 52.688C100.045 52.408 99.6613 52.012 99.3813 51.5C99.1013 50.98 98.9613 50.38 98.9613 49.7C98.9613 49.02 99.0973 48.424 99.3693 47.912C99.6413 47.4 100.021 47.008 100.509 46.736C101.005 46.456 101.573 46.316 102.213 46.316C102.837 46.316 103.389 46.452 103.869 46.724C104.349 46.996 104.717 47.372 104.973 47.852C105.237 48.324 105.369 48.86 105.369 49.46ZM104.241 49.232C104.241 48.816 104.149 48.46 103.965 48.164C103.781 47.86 103.529 47.632 103.209 47.48C102.897 47.32 102.549 47.24 102.165 47.24C101.613 47.24 101.141 47.416 100.749 47.768C100.365 48.12 100.145 48.608 100.089 49.232H104.241ZM110.015 46.304C110.815 46.304 111.463 46.548 111.959 47.036C112.455 47.516 112.703 48.212 112.703 49.124V53H111.623V49.28C111.623 48.624 111.459 48.124 111.131 47.78C110.803 47.428 110.355 47.252 109.787 47.252C109.211 47.252 108.751 47.432 108.407 47.792C108.071 48.152 107.903 48.676 107.903 49.364V53H106.811V46.424H107.903V47.36C108.119 47.024 108.411 46.764 108.779 46.58C109.155 46.396 109.567 46.304 110.015 46.304ZM115.818 47.324V51.2C115.818 51.52 115.886 51.748 116.022 51.884C116.158 52.012 116.394 52.076 116.73 52.076H117.534V53H116.55C115.942 53 115.486 52.86 115.182 52.58C114.878 52.3 114.726 51.84 114.726 51.2V47.324H113.874V46.424H114.726V44.768H115.818V46.424H117.534V47.324H115.818ZM63.237 62.636C64.149 62.636 64.937 62.808 65.601 63.152C66.273 63.488 66.785 63.972 67.137 64.604C67.497 65.236 67.677 65.98 67.677 66.836C67.677 67.692 67.497 68.436 67.137 69.068C66.785 69.692 66.273 70.172 65.601 70.508C64.937 70.836 64.149 71 63.237 71H60.633V62.636H63.237ZM63.237 70.1C64.317 70.1 65.141 69.816 65.709 69.248C66.277 68.672 66.561 67.868 66.561 66.836C66.561 65.796 66.273 64.984 65.697 64.4C65.129 63.816 64.309 63.524 63.237 63.524H61.725V70.1H63.237ZM75.1173 67.46C75.1173 67.668 75.1053 67.888 75.0813 68.12H69.8253C69.8653 68.768 70.0853 69.276 70.4853 69.644C70.8933 70.004 71.3853 70.184 71.9613 70.184C72.4333 70.184 72.8253 70.076 73.1373 69.86C73.4573 69.636 73.6813 69.34 73.8093 68.972H74.9853C74.8093 69.604 74.4573 70.12 73.9293 70.52C73.4013 70.912 72.7453 71.108 71.9613 71.108C71.3373 71.108 70.7773 70.968 70.2813 70.688C69.7933 70.408 69.4093 70.012 69.1293 69.5C68.8493 68.98 68.7093 68.38 68.7093 67.7C68.7093 67.02 68.8453 66.424 69.1173 65.912C69.3893 65.4 69.7693 65.008 70.2573 64.736C70.7533 64.456 71.3213 64.316 71.9613 64.316C72.5853 64.316 73.1373 64.452 73.6173 64.724C74.0973 64.996 74.4653 65.372 74.7213 65.852C74.9853 66.324 75.1173 66.86 75.1173 67.46ZM73.9893 67.232C73.9893 66.816 73.8973 66.46 73.7133 66.164C73.5293 65.86 73.2773 65.632 72.9573 65.48C72.6453 65.32 72.2973 65.24 71.9133 65.24C71.3613 65.24 70.8893 65.416 70.4973 65.768C70.1133 66.12 69.8933 66.608 69.8373 67.232H73.9893ZM77.8908 65.324V69.2C77.8908 69.52 77.9588 69.748 78.0948 69.884C78.2308 70.012 78.4668 70.076 78.8028 70.076H79.6068V71H78.6228C78.0148 71 77.5588 70.86 77.2548 70.58C76.9508 70.3 76.7988 69.84 76.7988 69.2V65.324H75.9468V64.424H76.7988V62.768H77.8908V64.424H79.6068V65.324H77.8908ZM80.5218 67.688C80.5218 67.016 80.6578 66.428 80.9298 65.924C81.2018 65.412 81.5738 65.016 82.0458 64.736C82.5258 64.456 83.0578 64.316 83.6418 64.316C84.2178 64.316 84.7178 64.44 85.1418 64.688C85.5658 64.936 85.8818 65.248 86.0898 65.624V64.424H87.1938V71H86.0898V69.776C85.8738 70.16 85.5498 70.48 85.1178 70.736C84.6938 70.984 84.1978 71.108 83.6298 71.108C83.0458 71.108 82.5178 70.964 82.0458 70.676C81.5738 70.388 81.2018 69.984 80.9298 69.464C80.6578 68.944 80.5218 68.352 80.5218 67.688ZM86.0898 67.7C86.0898 67.204 85.9898 66.772 85.7898 66.404C85.5898 66.036 85.3178 65.756 84.9738 65.564C84.6378 65.364 84.2658 65.264 83.8578 65.264C83.4498 65.264 83.0778 65.36 82.7418 65.552C82.4058 65.744 82.1378 66.024 81.9378 66.392C81.7378 66.76 81.6378 67.192 81.6378 67.688C81.6378 68.192 81.7378 68.632 81.9378 69.008C82.1378 69.376 82.4058 69.66 82.7418 69.86C83.0778 70.052 83.4498 70.148 83.8578 70.148C84.2658 70.148 84.6378 70.052 84.9738 69.86C85.3178 69.66 85.5898 69.376 85.7898 69.008C85.9898 68.632 86.0898 68.196 86.0898 67.7ZM89.6032 63.356C89.3952 63.356 89.2192 63.284 89.0752 63.14C88.9312 62.996 88.8592 62.82 88.8592 62.612C88.8592 62.404 88.9312 62.228 89.0752 62.084C89.2192 61.94 89.3952 61.868 89.6032 61.868C89.8032 61.868 89.9712 61.94 90.1072 62.084C90.2512 62.228 90.3232 62.404 90.3232 62.612C90.3232 62.82 90.2512 62.996 90.1072 63.14C89.9712 63.284 89.8032 63.356 89.6032 63.356ZM90.1312 64.424V71H89.0392V64.424H90.1312ZM93.0843 62.12V71H91.9923V62.12H93.0843ZM97.2735 71.108C96.7695 71.108 96.3175 71.024 95.9175 70.856C95.5175 70.68 95.2015 70.44 94.9695 70.136C94.7375 69.824 94.6095 69.468 94.5855 69.068H95.7135C95.7455 69.396 95.8975 69.664 96.1695 69.872C96.4495 70.08 96.8135 70.184 97.2615 70.184C97.6775 70.184 98.0055 70.092 98.2455 69.908C98.4855 69.724 98.6055 69.492 98.6055 69.212C98.6055 68.924 98.4775 68.712 98.2215 68.576C97.9655 68.432 97.5695 68.292 97.0335 68.156C96.5455 68.028 96.1455 67.9 95.8335 67.772C95.5295 67.636 95.2655 67.44 95.0415 67.184C94.8255 66.92 94.7175 66.576 94.7175 66.152C94.7175 65.816 94.8175 65.508 95.0175 65.228C95.2175 64.948 95.5015 64.728 95.8695 64.568C96.2375 64.4 96.6575 64.316 97.1295 64.316C97.8575 64.316 98.4455 64.5 98.8935 64.868C99.3415 65.236 99.5815 65.74 99.6135 66.38H98.5215C98.4975 66.036 98.3575 65.76 98.1015 65.552C97.8535 65.344 97.5175 65.24 97.0935 65.24C96.7015 65.24 96.3895 65.324 96.1575 65.492C95.9255 65.66 95.8095 65.88 95.8095 66.152C95.8095 66.368 95.8775 66.548 96.0135 66.692C96.1575 66.828 96.3335 66.94 96.5415 67.028C96.7575 67.108 97.0535 67.2 97.4295 67.304C97.9015 67.432 98.2855 67.56 98.5815 67.688C98.8775 67.808 99.1295 67.992 99.3375 68.24C99.5535 68.488 99.6655 68.812 99.6735 69.212C99.6735 69.572 99.5735 69.896 99.3735 70.184C99.1735 70.472 98.8895 70.7 98.5215 70.868C98.1615 71.028 97.7455 71.108 97.2735 71.108Z" fill="#C8C8D0"/>
<circle cx="208" cy="16" r="15.5" fill="white" stroke="#D4D4D8"/>
<path d="M203.816 20.832C205.171 19.744 206.232 18.8533 207 18.16C207.768 17.456 208.413 16.7253 208.936 15.968C209.469 15.2 209.736 14.448 209.736 13.712C209.736 13.0187 209.565 12.4747 209.224 12.08C208.893 11.6747 208.355 11.472 207.608 11.472C206.883 11.472 206.317 11.7013 205.912 12.16C205.517 12.608 205.304 13.2107 205.272 13.968H203.864C203.907 12.7733 204.269 11.8507 204.952 11.2C205.635 10.5493 206.515 10.224 207.592 10.224C208.691 10.224 209.56 10.528 210.2 11.136C210.851 11.744 211.176 12.5813 211.176 13.648C211.176 14.5333 210.909 15.3973 210.376 16.24C209.853 17.072 209.256 17.808 208.584 18.448C207.912 19.0773 207.053 19.8133 206.008 20.656H211.512V21.872H203.816V20.832Z" fill="#C8C8D0"/>
<path d="M188.741 47.084C188.741 47.78 188.501 48.36 188.021 48.824C187.549 49.28 186.825 49.508 185.849 49.508H184.241V53H183.149V44.636H185.849C186.793 44.636 187.509 44.864 187.997 45.32C188.493 45.776 188.741 46.364 188.741 47.084ZM185.849 48.608C186.457 48.608 186.905 48.476 187.193 48.212C187.481 47.948 187.625 47.572 187.625 47.084C187.625 46.052 187.033 45.536 185.849 45.536H184.241V48.608H185.849ZM196.098 49.46C196.098 49.668 196.086 49.888 196.062 50.12H190.806C190.846 50.768 191.066 51.276 191.466 51.644C191.874 52.004 192.366 52.184 192.942 52.184C193.414 52.184 193.806 52.076 194.118 51.86C194.438 51.636 194.662 51.34 194.79 50.972H195.966C195.79 51.604 195.438 52.12 194.91 52.52C194.382 52.912 193.726 53.108 192.942 53.108C192.318 53.108 191.758 52.968 191.262 52.688C190.774 52.408 190.39 52.012 190.11 51.5C189.83 50.98 189.69 50.38 189.69 49.7C189.69 49.02 189.826 48.424 190.098 47.912C190.37 47.4 190.75 47.008 191.238 46.736C191.734 46.456 192.302 46.316 192.942 46.316C193.566 46.316 194.118 46.452 194.598 46.724C195.078 46.996 195.446 47.372 195.702 47.852C195.966 48.324 196.098 48.86 196.098 49.46ZM194.97 49.232C194.97 48.816 194.878 48.46 194.694 48.164C194.51 47.86 194.258 47.632 193.938 47.48C193.626 47.32 193.278 47.24 192.894 47.24C192.342 47.24 191.87 47.416 191.478 47.768C191.094 48.12 190.874 48.608 190.818 49.232H194.97ZM198.631 47.492C198.823 47.116 199.095 46.824 199.447 46.616C199.807 46.408 200.243 46.304 200.755 46.304V47.432H200.467C199.243 47.432 198.631 48.096 198.631 49.424V53H197.539V46.424H198.631V47.492ZM204.344 53.108C203.84 53.108 203.388 53.024 202.988 52.856C202.588 52.68 202.272 52.44 202.04 52.136C201.808 51.824 201.68 51.468 201.656 51.068H202.784C202.816 51.396 202.968 51.664 203.24 51.872C203.52 52.08 203.884 52.184 204.332 52.184C204.748 52.184 205.076 52.092 205.316 51.908C205.556 51.724 205.676 51.492 205.676 51.212C205.676 50.924 205.548 50.712 205.292 50.576C205.036 50.432 204.64 50.292 204.104 50.156C203.616 50.028 203.216 49.9 202.904 49.772C202.6 49.636 202.336 49.44 202.112 49.184C201.896 48.92 201.788 48.576 201.788 48.152C201.788 47.816 201.888 47.508 202.088 47.228C202.288 46.948 202.572 46.728 202.94 46.568C203.308 46.4 203.728 46.316 204.2 46.316C204.928 46.316 205.516 46.5 205.964 46.868C206.412 47.236 206.652 47.74 206.684 48.38H205.592C205.568 48.036 205.428 47.76 205.172 47.552C204.924 47.344 204.588 47.24 204.164 47.24C203.772 47.24 203.46 47.324 203.228 47.492C202.996 47.66 202.88 47.88 202.88 48.152C202.88 48.368 202.948 48.548 203.084 48.692C203.228 48.828 203.404 48.94 203.612 49.028C203.828 49.108 204.124 49.2 204.5 49.304C204.972 49.432 205.356 49.56 205.652 49.688C205.948 49.808 206.2 49.992 206.408 50.24C206.624 50.488 206.736 50.812 206.744 51.212C206.744 51.572 206.644 51.896 206.444 52.184C206.244 52.472 205.96 52.7 205.592 52.868C205.232 53.028 204.816 53.108 204.344 53.108ZM211.153 53.108C210.537 53.108 209.977 52.968 209.473 52.688C208.977 52.408 208.585 52.012 208.297 51.5C208.017 50.98 207.877 50.38 207.877 49.7C207.877 49.028 208.021 48.436 208.309 47.924C208.605 47.404 209.005 47.008 209.509 46.736C210.013 46.456 210.577 46.316 211.201 46.316C211.825 46.316 212.389 46.456 212.893 46.736C213.397 47.008 213.793 47.4 214.081 47.912C214.377 48.424 214.525 49.02 214.525 49.7C214.525 50.38 214.373 50.98 214.069 51.5C213.773 52.012 213.369 52.408 212.857 52.688C212.345 52.968 211.777 53.108 211.153 53.108ZM211.153 52.148C211.545 52.148 211.913 52.056 212.257 51.872C212.601 51.688 212.877 51.412 213.085 51.044C213.301 50.676 213.409 50.228 213.409 49.7C213.409 49.172 213.305 48.724 213.097 48.356C212.889 47.988 212.617 47.716 212.281 47.54C211.945 47.356 211.581 47.264 211.189 47.264C210.789 47.264 210.421 47.356 210.085 47.54C209.757 47.716 209.493 47.988 209.293 48.356C209.093 48.724 208.993 49.172 208.993 49.7C208.993 50.236 209.089 50.688 209.281 51.056C209.481 51.424 209.745 51.7 210.073 51.884C210.401 52.06 210.761 52.148 211.153 52.148ZM219.165 46.304C219.965 46.304 220.613 46.548 221.109 47.036C221.605 47.516 221.853 48.212 221.853 49.124V53H220.773V49.28C220.773 48.624 220.609 48.124 220.281 47.78C219.953 47.428 219.505 47.252 218.937 47.252C218.361 47.252 217.901 47.432 217.557 47.792C217.221 48.152 217.053 48.676 217.053 49.364V53H215.961V46.424H217.053V47.36C217.269 47.024 217.561 46.764 217.929 46.58C218.305 46.396 218.717 46.304 219.165 46.304ZM223.229 49.688C223.229 49.016 223.365 48.428 223.637 47.924C223.909 47.412 224.281 47.016 224.753 46.736C225.233 46.456 225.765 46.316 226.349 46.316C226.925 46.316 227.425 46.44 227.849 46.688C228.273 46.936 228.589 47.248 228.797 47.624V46.424H229.901V53H228.797V51.776C228.581 52.16 228.257 52.48 227.825 52.736C227.401 52.984 226.905 53.108 226.337 53.108C225.753 53.108 225.225 52.964 224.753 52.676C224.281 52.388 223.909 51.984 223.637 51.464C223.365 50.944 223.229 50.352 223.229 49.688ZM228.797 49.7C228.797 49.204 228.697 48.772 228.497 48.404C228.297 48.036 228.025 47.756 227.681 47.564C227.345 47.364 226.973 47.264 226.565 47.264C226.157 47.264 225.785 47.36 225.449 47.552C225.113 47.744 224.845 48.024 224.645 48.392C224.445 48.76 224.345 49.192 224.345 49.688C224.345 50.192 224.445 50.632 224.645 51.008C224.845 51.376 225.113 51.66 225.449 51.86C225.785 52.052 226.157 52.148 226.565 52.148C226.973 52.148 227.345 52.052 227.681 51.86C228.025 51.66 228.297 51.376 228.497 51.008C228.697 50.632 228.797 50.196 228.797 49.7ZM232.838 44.12V53H231.746V44.12H232.838ZM175.077 62.636V71H173.985V62.636H175.077ZM180.142 64.304C180.942 64.304 181.59 64.548 182.086 65.036C182.582 65.516 182.83 66.212 182.83 67.124V71H181.75V67.28C181.75 66.624 181.586 66.124 181.258 65.78C180.93 65.428 180.482 65.252 179.914 65.252C179.338 65.252 178.878 65.432 178.534 65.792C178.198 66.152 178.03 66.676 178.03 67.364V71H176.938V64.424H178.03V65.36C178.246 65.024 178.538 64.764 178.906 64.58C179.282 64.396 179.694 64.304 180.142 64.304ZM187.289 65.324H185.909V71H184.817V65.324H183.965V64.424H184.817V63.956C184.817 63.22 185.005 62.684 185.381 62.348C185.765 62.004 186.377 61.832 187.217 61.832V62.744C186.737 62.744 186.397 62.84 186.197 63.032C186.005 63.216 185.909 63.524 185.909 63.956V64.424H187.289V65.324ZM191.431 71.108C190.815 71.108 190.255 70.968 189.751 70.688C189.255 70.408 188.863 70.012 188.575 69.5C188.295 68.98 188.155 68.38 188.155 67.7C188.155 67.028 188.299 66.436 188.587 65.924C188.883 65.404 189.283 65.008 189.787 64.736C190.291 64.456 190.855 64.316 191.479 64.316C192.103 64.316 192.667 64.456 193.171 64.736C193.675 65.008 194.071 65.4 194.359 65.912C194.655 66.424 194.803 67.02 194.803 67.7C194.803 68.38 194.651 68.98 194.347 69.5C194.051 70.012 193.647 70.408 193.135 70.688C192.623 70.968 192.055 71.108 191.431 71.108ZM191.431 70.148C191.823 70.148 192.191 70.056 192.535 69.872C192.879 69.688 193.155 69.412 193.363 69.044C193.579 68.676 193.687 68.228 193.687 67.7C193.687 67.172 193.583 66.724 193.375 66.356C193.167 65.988 192.895 65.716 192.559 65.54C192.223 65.356 191.859 65.264 191.467 65.264C191.067 65.264 190.699 65.356 190.363 65.54C190.035 65.716 189.771 65.988 189.571 66.356C189.371 66.724 189.271 67.172 189.271 67.7C189.271 68.236 189.367 68.688 189.559 69.056C189.759 69.424 190.023 69.7 190.351 69.884C190.679 70.06 191.039 70.148 191.431 70.148ZM197.33 65.492C197.522 65.116 197.794 64.824 198.146 64.616C198.506 64.408 198.942 64.304 199.454 64.304V65.432H199.166C197.942 65.432 197.33 66.096 197.33 67.424V71H196.238V64.424H197.33V65.492ZM208.623 64.304C209.135 64.304 209.591 64.412 209.991 64.628C210.391 64.836 210.707 65.152 210.939 65.576C211.171 66 211.287 66.516 211.287 67.124V71H210.207V67.28C210.207 66.624 210.043 66.124 209.715 65.78C209.395 65.428 208.959 65.252 208.407 65.252C207.839 65.252 207.387 65.436 207.051 65.804C206.715 66.164 206.547 66.688 206.547 67.376V71H205.467V67.28C205.467 66.624 205.303 66.124 204.975 65.78C204.655 65.428 204.219 65.252 203.667 65.252C203.099 65.252 202.647 65.436 202.311 65.804C201.975 66.164 201.807 66.688 201.807 67.376V71H200.715V64.424H201.807V65.372C202.023 65.028 202.311 64.764 202.671 64.58C203.039 64.396 203.443 64.304 203.883 64.304C204.435 64.304 204.923 64.428 205.347 64.676C205.771 64.924 206.087 65.288 206.295 65.768C206.479 65.304 206.783 64.944 207.207 64.688C207.631 64.432 208.103 64.304 208.623 64.304ZM212.67 67.688C212.67 67.016 212.806 66.428 213.078 65.924C213.35 65.412 213.722 65.016 214.194 64.736C214.674 64.456 215.206 64.316 215.79 64.316C216.366 64.316 216.866 64.44 217.29 64.688C217.714 64.936 218.03 65.248 218.238 65.624V64.424H219.342V71H218.238V69.776C218.022 70.16 217.698 70.48 217.266 70.736C216.842 70.984 216.346 71.108 215.778 71.108C215.194 71.108 214.666 70.964 214.194 70.676C213.722 70.388 213.35 69.984 213.078 69.464C212.806 68.944 212.67 68.352 212.67 67.688ZM218.238 67.7C218.238 67.204 218.138 66.772 217.938 66.404C217.738 66.036 217.466 65.756 217.122 65.564C216.786 65.364 216.414 65.264 216.006 65.264C215.598 65.264 215.226 65.36 214.89 65.552C214.554 65.744 214.286 66.024 214.086 66.392C213.886 66.76 213.786 67.192 213.786 67.688C213.786 68.192 213.886 68.632 214.086 69.008C214.286 69.376 214.554 69.66 214.89 69.86C215.226 70.052 215.598 70.148 216.006 70.148C216.414 70.148 216.786 70.052 217.122 69.86C217.466 69.66 217.738 69.376 217.938 69.008C218.138 68.632 218.238 68.196 218.238 67.7ZM222.52 65.324V69.2C222.52 69.52 222.588 69.748 222.724 69.884C222.86 70.012 223.096 70.076 223.432 70.076H224.236V71H223.252C222.644 71 222.188 70.86 221.884 70.58C221.58 70.3 221.428 69.84 221.428 69.2V65.324H220.576V64.424H221.428V62.768H222.52V64.424H224.236V65.324H222.52ZM226.123 63.356C225.915 63.356 225.739 63.284 225.595 63.14C225.451 62.996 225.379 62.82 225.379 62.612C225.379 62.404 225.451 62.228 225.595 62.084C225.739 61.94 225.915 61.868 226.123 61.868C226.323 61.868 226.491 61.94 226.627 62.084C226.771 62.228 226.843 62.404 226.843 62.612C226.843 62.82 226.771 62.996 226.627 63.14C226.491 63.284 226.323 63.356 226.123 63.356ZM226.651 64.424V71H225.559V64.424H226.651ZM231.38 71.108C230.764 71.108 230.204 70.968 229.7 70.688C229.204 70.408 228.812 70.012 228.524 69.5C228.244 68.98 228.104 68.38 228.104 67.7C228.104 67.028 228.248 66.436 228.536 65.924C228.832 65.404 229.232 65.008 229.736 64.736C230.24 64.456 230.804 64.316 231.428 64.316C232.052 64.316 232.616 64.456 233.12 64.736C233.624 65.008 234.02 65.4 234.308 65.912C234.604 66.424 234.752 67.02 234.752 67.7C234.752 68.38 234.6 68.98 234.296 69.5C234 70.012 233.596 70.408 233.084 70.688C232.572 70.968 232.004 71.108 231.38 71.108ZM231.38 70.148C231.772 70.148 232.14 70.056 232.484 69.872C232.828 69.688 233.104 69.412 233.312 69.044C233.528 68.676 233.636 68.228 233.636 67.7C233.636 67.172 233.532 66.724 233.324 66.356C233.116 65.988 232.844 65.716 232.508 65.54C232.172 65.356 231.808 65.264 231.416 65.264C231.016 65.264 230.648 65.356 230.312 65.54C229.984 65.716 229.72 65.988 229.52 66.356C229.32 66.724 229.22 67.172 229.22 67.7C229.22 68.236 229.316 68.688 229.508 69.056C229.708 69.424 229.972 69.7 230.3 69.884C230.628 70.06 230.988 70.148 231.38 70.148ZM239.392 64.304C240.192 64.304 240.84 64.548 241.336 65.036C241.832 65.516 242.08 66.212 242.08 67.124V71H241V67.28C241 66.624 240.836 66.124 240.508 65.78C240.18 65.428 239.732 65.252 239.164 65.252C238.588 65.252 238.128 65.432 237.784 65.792C237.448 66.152 237.28 66.676 237.28 67.364V71H236.188V64.424H237.28V65.36C237.496 65.024 237.788 64.764 238.156 64.58C238.532 64.396 238.944 64.304 239.392 64.304Z" fill="#C8C8D0"/>
<circle cx="336" cy="16" r="15.5" fill="white" stroke="#D4D4D8"/>
<path d="M331.96 13.344C332.035 12.3627 332.413 11.5947 333.096 11.04C333.779 10.4853 334.664 10.208 335.752 10.208C336.477 10.208 337.101 10.3413 337.624 10.608C338.157 10.864 338.557 11.216 338.824 11.664C339.101 12.112 339.24 12.6187 339.24 13.184C339.24 13.8453 339.048 14.416 338.664 14.896C338.291 15.376 337.8 15.6853 337.192 15.824V15.904C337.885 16.0747 338.435 16.4107 338.84 16.912C339.245 17.4133 339.448 18.0693 339.448 18.88C339.448 19.488 339.309 20.0373 339.032 20.528C338.755 21.008 338.339 21.3867 337.784 21.664C337.229 21.9413 336.563 22.08 335.784 22.08C334.653 22.08 333.725 21.7867 333 21.2C332.275 20.6027 331.869 19.76 331.784 18.672H333.192C333.267 19.312 333.528 19.8347 333.976 20.24C334.424 20.6453 335.021 20.848 335.768 20.848C336.515 20.848 337.08 20.656 337.464 20.272C337.859 19.8773 338.056 19.3707 338.056 18.752C338.056 17.952 337.789 17.376 337.256 17.024C336.723 16.672 335.917 16.496 334.84 16.496H334.472V15.28H334.856C335.837 15.2693 336.579 15.1093 337.08 14.8C337.581 14.48 337.832 13.9893 337.832 13.328C337.832 12.7627 337.645 12.3093 337.272 11.968C336.909 11.6267 336.387 11.456 335.704 11.456C335.043 11.456 334.509 11.6267 334.104 11.968C333.699 12.3093 333.459 12.768 333.384 13.344H331.96Z" fill="#C8C8D0"/>
<path d="M297.791 52.112H300.719V53H296.699V44.636H297.791V52.112ZM304.747 53.108C304.131 53.108 303.571 52.968 303.067 52.688C302.571 52.408 302.179 52.012 301.891 51.5C301.611 50.98 301.471 50.38 301.471 49.7C301.471 49.028 301.615 48.436 301.903 47.924C302.199 47.404 302.599 47.008 303.103 46.736C303.607 46.456 304.171 46.316 304.795 46.316C305.419 46.316 305.983 46.456 306.487 46.736C306.991 47.008 307.387 47.4 307.675 47.912C307.971 48.424 308.119 49.02 308.119 49.7C308.119 50.38 307.967 50.98 307.663 51.5C307.367 52.012 306.963 52.408 306.451 52.688C305.939 52.968 305.371 53.108 304.747 53.108ZM304.747 52.148C305.139 52.148 305.507 52.056 305.851 51.872C306.195 51.688 306.471 51.412 306.679 51.044C306.895 50.676 307.003 50.228 307.003 49.7C307.003 49.172 306.899 48.724 306.691 48.356C306.483 47.988 306.211 47.716 305.875 47.54C305.539 47.356 305.175 47.264 304.783 47.264C304.383 47.264 304.015 47.356 303.679 47.54C303.351 47.716 303.087 47.988 302.887 48.356C302.687 48.724 302.587 49.172 302.587 49.7C302.587 50.236 302.683 50.688 302.875 51.056C303.075 51.424 303.339 51.7 303.667 51.884C303.995 52.06 304.355 52.148 304.747 52.148ZM309.147 49.688C309.147 49.016 309.283 48.428 309.555 47.924C309.827 47.412 310.199 47.016 310.671 46.736C311.151 46.456 311.683 46.316 312.267 46.316C312.843 46.316 313.343 46.44 313.767 46.688C314.191 46.936 314.507 47.248 314.715 47.624V46.424H315.819V53H314.715V51.776C314.499 52.16 314.175 52.48 313.743 52.736C313.319 52.984 312.823 53.108 312.255 53.108C311.671 53.108 311.143 52.964 310.671 52.676C310.199 52.388 309.827 51.984 309.555 51.464C309.283 50.944 309.147 50.352 309.147 49.688ZM314.715 49.7C314.715 49.204 314.615 48.772 314.415 48.404C314.215 48.036 313.943 47.756 313.599 47.564C313.263 47.364 312.891 47.264 312.483 47.264C312.075 47.264 311.703 47.36 311.367 47.552C311.031 47.744 310.763 48.024 310.563 48.392C310.363 48.76 310.263 49.192 310.263 49.688C310.263 50.192 310.363 50.632 310.563 51.008C310.763 51.376 311.031 51.66 311.367 51.86C311.703 52.052 312.075 52.148 312.483 52.148C312.891 52.148 313.263 52.052 313.599 51.86C313.943 51.66 314.215 51.376 314.415 51.008C314.615 50.632 314.715 50.196 314.715 49.7ZM320.868 46.304C321.668 46.304 322.316 46.548 322.812 47.036C323.308 47.516 323.556 48.212 323.556 49.124V53H322.476V49.28C322.476 48.624 322.312 48.124 321.984 47.78C321.656 47.428 321.208 47.252 320.64 47.252C320.064 47.252 319.604 47.432 319.26 47.792C318.924 48.152 318.756 48.676 318.756 49.364V53H317.664V46.424H318.756V47.36C318.972 47.024 319.264 46.764 319.632 46.58C320.008 46.396 320.42 46.304 320.868 46.304ZM332.943 53L330.951 49.58H329.631V53H328.539V44.636H331.239C331.871 44.636 332.403 44.744 332.835 44.96C333.275 45.176 333.603 45.468 333.819 45.836C334.035 46.204 334.143 46.624 334.143 47.096C334.143 47.672 333.975 48.18 333.639 48.62C333.311 49.06 332.815 49.352 332.151 49.496L334.251 53H332.943ZM329.631 48.704H331.239C331.831 48.704 332.275 48.56 332.571 48.272C332.867 47.976 333.015 47.584 333.015 47.096C333.015 46.6 332.867 46.216 332.571 45.944C332.283 45.672 331.839 45.536 331.239 45.536H329.631V48.704ZM341.84 49.46C341.84 49.668 341.828 49.888 341.804 50.12H336.548C336.588 50.768 336.808 51.276 337.208 51.644C337.616 52.004 338.108 52.184 338.684 52.184C339.156 52.184 339.548 52.076 339.86 51.86C340.18 51.636 340.404 51.34 340.532 50.972H341.708C341.532 51.604 341.18 52.12 340.652 52.52C340.124 52.912 339.468 53.108 338.684 53.108C338.06 53.108 337.5 52.968 337.004 52.688C336.516 52.408 336.132 52.012 335.852 51.5C335.572 50.98 335.432 50.38 335.432 49.7C335.432 49.02 335.568 48.424 335.84 47.912C336.112 47.4 336.492 47.008 336.98 46.736C337.476 46.456 338.044 46.316 338.684 46.316C339.308 46.316 339.86 46.452 340.34 46.724C340.82 46.996 341.188 47.372 341.444 47.852C341.708 48.324 341.84 48.86 341.84 49.46ZM340.712 49.232C340.712 48.816 340.62 48.46 340.436 48.164C340.252 47.86 340 47.632 339.68 47.48C339.368 47.32 339.02 47.24 338.636 47.24C338.084 47.24 337.612 47.416 337.22 47.768C336.836 48.12 336.616 48.608 336.56 49.232H340.712ZM342.873 49.688C342.873 49.016 343.009 48.428 343.281 47.924C343.553 47.412 343.925 47.016 344.397 46.736C344.877 46.456 345.413 46.316 346.005 46.316C346.573 46.316 347.069 46.444 347.493 46.7C347.925 46.948 348.241 47.256 348.441 47.624V46.424H349.545V56.12H348.441V51.788C348.233 52.156 347.913 52.468 347.481 52.724C347.049 52.98 346.545 53.108 345.969 53.108C345.393 53.108 344.869 52.964 344.397 52.676C343.925 52.388 343.553 51.984 343.281 51.464C343.009 50.944 342.873 50.352 342.873 49.688ZM348.441 49.7C348.441 49.204 348.341 48.772 348.141 48.404C347.941 48.036 347.669 47.756 347.325 47.564C346.989 47.364 346.617 47.264 346.209 47.264C345.801 47.264 345.429 47.36 345.093 47.552C344.757 47.744 344.489 48.024 344.289 48.392C344.089 48.76 343.989 49.192 343.989 49.688C343.989 50.192 344.089 50.632 344.289 51.008C344.489 51.376 344.757 51.66 345.093 51.86C345.429 52.052 345.801 52.148 346.209 52.148C346.617 52.148 346.989 52.052 347.325 51.86C347.669 51.66 347.941 51.376 348.141 51.008C348.341 50.632 348.441 50.196 348.441 49.7ZM357.223 46.424V53H356.131V52.028C355.923 52.364 355.631 52.628 355.255 52.82C354.887 53.004 354.479 53.096 354.031 53.096C353.519 53.096 353.059 52.992 352.651 52.784C352.243 52.568 351.919 52.248 351.679 51.824C351.447 51.4 351.331 50.884 351.331 50.276V46.424H352.411V50.132C352.411 50.78 352.575 51.28 352.903 51.632C353.231 51.976 353.679 52.148 354.247 52.148C354.831 52.148 355.291 51.968 355.627 51.608C355.963 51.248 356.131 50.724 356.131 50.036V46.424H357.223ZM365.067 49.46C365.067 49.668 365.055 49.888 365.031 50.12H359.775C359.815 50.768 360.035 51.276 360.435 51.644C360.843 52.004 361.335 52.184 361.911 52.184C362.383 52.184 362.775 52.076 363.087 51.86C363.407 51.636 363.631 51.34 363.759 50.972H364.935C364.759 51.604 364.407 52.12 363.879 52.52C363.351 52.912 362.695 53.108 361.911 53.108C361.287 53.108 360.727 52.968 360.231 52.688C359.743 52.408 359.359 52.012 359.079 51.5C358.799 50.98 358.659 50.38 358.659 49.7C358.659 49.02 358.795 48.424 359.067 47.912C359.339 47.4 359.719 47.008 360.207 46.736C360.703 46.456 361.271 46.316 361.911 46.316C362.535 46.316 363.087 46.452 363.567 46.724C364.047 46.996 364.415 47.372 364.671 47.852C364.935 48.324 365.067 48.86 365.067 49.46ZM363.939 49.232C363.939 48.816 363.847 48.46 363.663 48.164C363.479 47.86 363.227 47.632 362.907 47.48C362.595 47.32 362.247 47.24 361.863 47.24C361.311 47.24 360.839 47.416 360.447 47.768C360.063 48.12 359.843 48.608 359.787 49.232H363.939ZM368.836 53.108C368.332 53.108 367.88 53.024 367.48 52.856C367.08 52.68 366.764 52.44 366.532 52.136C366.3 51.824 366.172 51.468 366.148 51.068H367.276C367.308 51.396 367.46 51.664 367.732 51.872C368.012 52.08 368.376 52.184 368.824 52.184C369.24 52.184 369.568 52.092 369.808 51.908C370.048 51.724 370.168 51.492 370.168 51.212C370.168 50.924 370.04 50.712 369.784 50.576C369.528 50.432 369.132 50.292 368.596 50.156C368.108 50.028 367.708 49.9 367.396 49.772C367.092 49.636 366.828 49.44 366.604 49.184C366.388 48.92 366.28 48.576 366.28 48.152C366.28 47.816 366.38 47.508 366.58 47.228C366.78 46.948 367.064 46.728 367.432 46.568C367.8 46.4 368.22 46.316 368.692 46.316C369.42 46.316 370.008 46.5 370.456 46.868C370.904 47.236 371.144 47.74 371.176 48.38H370.084C370.06 48.036 369.92 47.76 369.664 47.552C369.416 47.344 369.08 47.24 368.656 47.24C368.264 47.24 367.952 47.324 367.72 47.492C367.488 47.66 367.372 47.88 367.372 48.152C367.372 48.368 367.44 48.548 367.576 48.692C367.72 48.828 367.896 48.94 368.104 49.028C368.32 49.108 368.616 49.2 368.992 49.304C369.464 49.432 369.848 49.56 370.144 49.688C370.44 49.808 370.692 49.992 370.9 50.24C371.116 50.488 371.228 50.812 371.236 51.212C371.236 51.572 371.136 51.896 370.936 52.184C370.736 52.472 370.452 52.7 370.084 52.868C369.724 53.028 369.308 53.108 368.836 53.108ZM374.11 47.324V51.2C374.11 51.52 374.178 51.748 374.314 51.884C374.45 52.012 374.686 52.076 375.022 52.076H375.826V53H374.842C374.234 53 373.778 52.86 373.474 52.58C373.17 52.3 373.018 51.84 373.018 51.2V47.324H372.166V46.424H373.018V44.768H374.11V46.424H375.826V47.324H374.11ZM319.237 62.636C320.149 62.636 320.937 62.808 321.601 63.152C322.273 63.488 322.785 63.972 323.137 64.604C323.497 65.236 323.677 65.98 323.677 66.836C323.677 67.692 323.497 68.436 323.137 69.068C322.785 69.692 322.273 70.172 321.601 70.508C320.937 70.836 320.149 71 319.237 71H316.633V62.636H319.237ZM319.237 70.1C320.317 70.1 321.141 69.816 321.709 69.248C322.277 68.672 322.561 67.868 322.561 66.836C322.561 65.796 322.273 64.984 321.697 64.4C321.129 63.816 320.309 63.524 319.237 63.524H317.725V70.1H319.237ZM331.117 67.46C331.117 67.668 331.105 67.888 331.081 68.12H325.825C325.865 68.768 326.085 69.276 326.485 69.644C326.893 70.004 327.385 70.184 327.961 70.184C328.433 70.184 328.825 70.076 329.137 69.86C329.457 69.636 329.681 69.34 329.809 68.972H330.985C330.809 69.604 330.457 70.12 329.929 70.52C329.401 70.912 328.745 71.108 327.961 71.108C327.337 71.108 326.777 70.968 326.281 70.688C325.793 70.408 325.409 70.012 325.129 69.5C324.849 68.98 324.709 68.38 324.709 67.7C324.709 67.02 324.845 66.424 325.117 65.912C325.389 65.4 325.769 65.008 326.257 64.736C326.753 64.456 327.321 64.316 327.961 64.316C328.585 64.316 329.137 64.452 329.617 64.724C330.097 64.996 330.465 65.372 330.721 65.852C330.985 66.324 331.117 66.86 331.117 67.46ZM329.989 67.232C329.989 66.816 329.897 66.46 329.713 66.164C329.529 65.86 329.277 65.632 328.957 65.48C328.645 65.32 328.297 65.24 327.913 65.24C327.361 65.24 326.889 65.416 326.497 65.768C326.113 66.12 325.893 66.608 325.837 67.232H329.989ZM333.891 65.324V69.2C333.891 69.52 333.959 69.748 334.095 69.884C334.231 70.012 334.467 70.076 334.803 70.076H335.607V71H334.623C334.015 71 333.559 70.86 333.255 70.58C332.951 70.3 332.799 69.84 332.799 69.2V65.324H331.947V64.424H332.799V62.768H333.891V64.424H335.607V65.324H333.891ZM336.522 67.688C336.522 67.016 336.658 66.428 336.93 65.924C337.202 65.412 337.574 65.016 338.046 64.736C338.526 64.456 339.058 64.316 339.642 64.316C340.218 64.316 340.718 64.44 341.142 64.688C341.566 64.936 341.882 65.248 342.09 65.624V64.424H343.194V71H342.09V69.776C341.874 70.16 341.55 70.48 341.118 70.736C340.694 70.984 340.198 71.108 339.63 71.108C339.046 71.108 338.518 70.964 338.046 70.676C337.574 70.388 337.202 69.984 336.93 69.464C336.658 68.944 336.522 68.352 336.522 67.688ZM342.09 67.7C342.09 67.204 341.99 66.772 341.79 66.404C341.59 66.036 341.318 65.756 340.974 65.564C340.638 65.364 340.266 65.264 339.858 65.264C339.45 65.264 339.078 65.36 338.742 65.552C338.406 65.744 338.138 66.024 337.938 66.392C337.738 66.76 337.638 67.192 337.638 67.688C337.638 68.192 337.738 68.632 337.938 69.008C338.138 69.376 338.406 69.66 338.742 69.86C339.078 70.052 339.45 70.148 339.858 70.148C340.266 70.148 340.638 70.052 340.974 69.86C341.318 69.66 341.59 69.376 341.79 69.008C341.99 68.632 342.09 68.196 342.09 67.7ZM345.603 63.356C345.395 63.356 345.219 63.284 345.075 63.14C344.931 62.996 344.859 62.82 344.859 62.612C344.859 62.404 344.931 62.228 345.075 62.084C345.219 61.94 345.395 61.868 345.603 61.868C345.803 61.868 345.971 61.94 346.107 62.084C346.251 62.228 346.323 62.404 346.323 62.612C346.323 62.82 346.251 62.996 346.107 63.14C345.971 63.284 345.803 63.356 345.603 63.356ZM346.131 64.424V71H345.039V64.424H346.131ZM349.084 62.12V71H347.992V62.12H349.084ZM353.273 71.108C352.769 71.108 352.317 71.024 351.917 70.856C351.517 70.68 351.201 70.44 350.969 70.136C350.737 69.824 350.609 69.468 350.585 69.068H351.713C351.745 69.396 351.897 69.664 352.169 69.872C352.449 70.08 352.813 70.184 353.261 70.184C353.677 70.184 354.005 70.092 354.245 69.908C354.485 69.724 354.605 69.492 354.605 69.212C354.605 68.924 354.477 68.712 354.221 68.576C353.965 68.432 353.569 68.292 353.033 68.156C352.545 68.028 352.145 67.9 351.833 67.772C351.529 67.636 351.265 67.44 351.041 67.184C350.825 66.92 350.717 66.576 350.717 66.152C350.717 65.816 350.817 65.508 351.017 65.228C351.217 64.948 351.501 64.728 351.869 64.568C352.237 64.4 352.657 64.316 353.129 64.316C353.857 64.316 354.445 64.5 354.893 64.868C355.341 65.236 355.581 65.74 355.613 66.38H354.521C354.497 66.036 354.357 65.76 354.101 65.552C353.853 65.344 353.517 65.24 353.093 65.24C352.701 65.24 352.389 65.324 352.157 65.492C351.925 65.66 351.809 65.88 351.809 66.152C351.809 66.368 351.877 66.548 352.013 66.692C352.157 66.828 352.333 66.94 352.541 67.028C352.757 67.108 353.053 67.2 353.429 67.304C353.901 67.432 354.285 67.56 354.581 67.688C354.877 67.808 355.129 67.992 355.337 68.24C355.553 68.488 355.665 68.812 355.673 69.212C355.673 69.572 355.573 69.896 355.373 70.184C355.173 70.472 354.889 70.7 354.521 70.868C354.161 71.028 353.745 71.108 353.273 71.108Z" fill="#C8C8D0"/>
</svg>
